<svg xmlns="http://www.w3.org/2000/svg" width="1600" height="700" viewBox="0 0 1600 700" role="img" aria-label="AI Trade Analyst banner">
  <defs>
    <linearGradient id="bg" x1="0" y1="0" x2="1" y2="1">
      <stop offset="0%" stop-color="#071a33"/>
      <stop offset="100%" stop-color="#0f3a66"/>
    </linearGradient>
    <linearGradient id="accent" x1="0" y1="0" x2="1" y2="1">
      <stop offset="0%" stop-color="#6de4ff"/>
      <stop offset="100%" stop-color="#2b86ff"/>
    </linearGradient>
  </defs>

  <rect width="1600" height="700" fill="url(#bg)"/>
  <g opacity="0.18" stroke="#8fd0ff" stroke-width="2" fill="none">
    <path d="M60 520 L200 480 L340 500 L500 430 L700 450 L860 390 L1080 420 L1280 350 L1540 380"/>
    <path d="M80 600 L220 560 L380 585 L560 520 L760 545 L920 490 L1140 520 L1320 470 L1560 500"/>
  </g>

  <g transform="translate(120,170)">
    <circle cx="120" cy="170" r="110" fill="none" stroke="#b9dbff" stroke-width="10" opacity="0.9"/>
    <path d="M40 220 L100 160 L150 190 L220 120" fill="none" stroke="url(#accent)" stroke-width="16" stroke-linecap="round" stroke-linejoin="round"/>
    <path d="M214 122 L238 122 L238 98" fill="none" stroke="url(#accent)" stroke-width="16" stroke-linecap="round"/>
  </g>

  <text x="430" y="340" fill="#e7eefc" font-size="140" font-family="Segoe UI, Inter, Arial, sans-serif" font-weight="700">AI</text>
  <text x="700" y="315" fill="#e7eefc" font-size="92" font-family="Segoe UI, Inter, Arial, sans-serif" font-weight="700">TRADE</text>
  <text x="700" y="420" fill="#e7eefc" font-size="92" font-family="Segoe UI, Inter, Arial, sans-serif" font-weight="700">ANALYST</text>
</svg>
